# xmcd
#
# Track frame offsets: 
#        150
#        15732
#        30551
#        42437
#        51639
#        63330
#        73870
#        93862
#        107673
#        127848
#        141811
#        157416
#
# Disc length: 2305 seconds
#
# Revision: 0
# Processed by: cddbd v1.5.2PL0 Copyright (c) Steve Scherf et al.
# Submitted via: ExactAudioCopy v1.0b6
#
DISCID=aa08ff0c
DTITLE=My New Favorites - My New Favorites
DYEAR=2017
DGENRE=Folk/Rock
TTITLE0=Meet Me In The Water
TTITLE1=Got to Have That Giving
TTITLE2=Go
TTITLE3=Man Among Men
TTITLE4=You Make Me Smile
TTITLE5=Splitsville
TTITLE6=Hallowed Ground
TTITLE7=Love Won't Live Here
TTITLE8=My New Favorites
TTITLE9=Long White Robe
TTITLE10=Come On Home
TTITLE11=The Shelter Blues
EXTD=
EXTT0=
EXTT1=
EXTT2=
EXTT3=
EXTT4=
EXTT5=
EXTT6=
EXTT7=
EXTT8=
EXTT9=
EXTT10=
EXTT11=
PLAYORDER=
